<?xml version="1.0" encoding="UTF-8"?>
<svg id="Capa_1" data-name="Capa 1" xmlns="http://www.w3.org/2000/svg" viewBox="0 0 536.24 523.26" >
  <defs>
    <style>
      .cls-1 {
        fill: #22D4FD;
        stroke-width: 0px;
        
      }
    </style>
  </defs>
  <path class="cls-1" d="M536.24,286.67c-1.39,9.8-2.46,19.66-4.22,29.4-12.07,66.87-46.01,120.67-98.39,163.23-23.5,19.09-50.11,32.64-78.59,42.61-12.1,4.23-20.22-1.63-20.31-14.76-.17-24.6.23-49.21-.3-73.8-.48-22.39-3.42-29.37-17.05-46.83,8.87-1.55,17.53-2.8,26.07-4.61,26.5-5.61,50.29-16.48,68.54-37.19,11.68-13.24,17.97-29.28,22-46.22,5.22-21.9,6.92-44.02,2.9-66.34-3.16-17.55-10.85-32.98-22.49-46.42-1.99-2.3-2.83-4.18-1.7-7.36,7.78-21.98,4.91-43.56-3.22-64.76-.54-1.4-2.97-2.73-4.66-2.92-9.09-1.05-17.77,1.29-25.8,5.13-13.32,6.36-26.39,13.27-39.38,20.29-3.12,1.69-5.76,2.48-9.23,1.59-41.49-10.71-83-10.64-124.56-.16-2.61.66-6.28-.02-8.57-1.47-17.18-10.87-35.23-19.68-55.02-24.66-.17-.04-.32-.14-.49-.17-12.01-2.71-14.74-1.03-18.1,10.6-5.54,19.21-6.49,38.33.06,57.55.55,1.61-.27,4.39-1.45,5.77-12.07,14.09-20.49,30.1-22.96,48.45-5.13,38.06-.34,74.46,21.85,106.93,11.52,16.86,28.44,27.35,47.26,33.94,13.68,4.79,28.21,7.19,42.37,10.58,2.51.6,5.11.8,6.96,1.08-3.94,7.2-8.01,14.37-11.77,21.69-1.16,2.27-1.98,4.95-2.08,7.48-.22,6.12-3.77,8.78-9.11,10.17-14.47,3.74-28.99,6.46-43.49.42-11.21-4.67-19.3-12.98-25.35-23.29-7.89-13.45-18.71-23.5-33.74-28.01-5.11-1.54-10.94-1.51-16.34-1.03-4.88.44-5.67,2.8-2.8,6.66,2.15,2.89,4.59,5.97,7.62,7.73,14.04,8.13,21.98,21.03,28.41,35.16,3.82,8.4,7.16,16.93,14.25,23.43,11.02,10.11,24.45,14.02,38.74,14.78,12.8.68,25.68-.09,39.29-.23.03.28.3,1.93.32,3.58.16,14.13.34,28.26.38,42.4.04,12.99-8.58,19.1-20.87,14.77-75.81-26.68-128.86-77.91-160.92-150.96C3.59,332.74-1.98,292.22.6,250.8c3.74-60.06,25.61-113.11,65.02-158.49C104.15,47.95,152.38,19.1,209.83,6.27,238.79-.2,268.08-1.52,297.66,1.65c61.96,6.63,115,32.29,159.11,75.72,40.18,39.56,65.65,87.41,75.31,143.27,1.63,9.4,2.78,18.89,4.16,28.34v37.69Z"/>
</svg>