<?xml version="1.0" encoding="UTF-8"?>
<svg id="Capa_1" data-name="Capa 1" xmlns="http://www.w3.org/2000/svg" viewBox="0 0 478.53 477.71">
  <defs>
    <style>
      .cls-1 {
        fill: #22D4FD;
        stroke-width: 0px;
      }
    </style>
  </defs>
  <path class="cls-1" d="M268.33,477.71h-98.9V158.8h94.91v43.15c.14.11.28.23.42.34.47-.32,1.14-.54,1.4-.98,15.54-26.53,39.09-41.64,68.64-48.16,12.43-2.74,25.03-2.92,37.67-2.13,12.64.79,25.06,2.79,37.09,6.85,26.15,8.83,44.26,26.24,54.95,51.56,5.86,13.88,9.13,28.42,11.12,43.3,2.35,17.5,2.91,35.1,2.9,52.74-.03,56.6-.01,113.19-.01,169.79v2.4h-99.02c0-.76,0-1.5,0-2.24,0-50.56.05-101.11-.04-151.67-.02-9.73-.3-19.48-.92-29.19-.68-10.67-2.59-21.15-7.07-31-6.59-14.47-17.91-22.62-33.53-24.82-10.52-1.49-20.97-.91-31.19,2.09-14.71,4.31-24.68,13.93-30.63,27.9-4.03,9.46-6.03,19.42-6.8,29.59-.6,7.91-.94,15.86-.95,23.79-.08,51.05-.04,102.09-.04,153.14v2.47Z"/>
  <path class="cls-1" d="M106.98,477.7H7.88V158.76h99.1v318.94Z"/>
  <path class="cls-1" d="M115.02,57.44c-.25,32.89-26.77,57.57-57.5,57.6C26.73,115.07.55,90.67,0,58.72-.54,26.09,25.08.07,57.38,0c30.97-.06,57.3,24.65,57.64,57.44Z"/>
</svg>